<?xml version="1.0" standalone="no"?>
<!DOCTYPE svg PUBLIC "-//W3C//DTD SVG 20010904//EN"
 "http://www.w3.org/TR/2001/REC-SVG-20010904/DTD/svg10.dtd">
<svg version="1.0" xmlns="http://www.w3.org/2000/svg"
 width="512.000000pt" height="512.000000pt" viewBox="0 0 512.000000 512.000000"
 preserveAspectRatio="xMidYMid meet">

<g transform="translate(0.000000,512.000000) scale(0.100000,-0.100000)"
fill="#000000" stroke="none">
<path d="M2325 4949 c-221 -21 -493 -92 -714 -186 -551 -235 -1015 -696 -1250
-1245 -393 -915 -196 -1954 504 -2653 937 -938 2455 -938 3390 -1 938 940 938
2451 0 3392 -505 507 -1211 760 -1930 693z m1394 -1255 c18 -4 30 -10 29 -14
-8 -18 -1173 -1020 -1187 -1020 -9 0 -167 131 -351 290 -184 160 -448 388
-587 508 -138 119 -252 220 -252 224 -1 4 9 9 22 11 36 7 2291 8 2326 1z
m-1957 -725 c453 -394 627 -539 668 -558 44 -20 71 -25 131 -26 127 0 133 4
806 590 328 286 600 521 604 523 26 11 30 -131 27 -968 l-3 -865 -28 -57 c-35
-72 -110 -141 -180 -165 -49 -17 -116 -18 -1227 -18 -1150 0 -1176 0 -1229 20
-72 26 -143 92 -178 163 l-28 57 -3 865 c-2 618 0 880 8 918 6 28 13 52 16 52
2 0 279 -239 616 -531z"/>
</g>
</svg>
