<?xml version="1.0" standalone="no"?>
<!DOCTYPE svg PUBLIC "-//W3C//DTD SVG 20010904//EN"
 "http://www.w3.org/TR/2001/REC-SVG-20010904/DTD/svg10.dtd">
<svg version="1.0" xmlns="http://www.w3.org/2000/svg"
 width="500.000000pt" height="500.000000pt" viewBox="0 0 500.000000 500.000000"
 preserveAspectRatio="xMidYMid meet">

<g transform="translate(0.000000,500.000000) scale(0.100000,-0.100000)"
fill="#000000" stroke="none">
<path d="M2325 4854 c-319 -29 -573 -97 -851 -229 -202 -95 -432 -255 -603
-420 -513 -494 -773 -1167 -722 -1872 15 -212 47 -374 117 -583 256 -771 877
-1345 1671 -1544 203 -50 297 -60 563 -60 263 0 357 10 560 60 327 80 605 214
879 422 281 215 516 501 676 827 143 292 213 554 237 883 30 421 -48 816 -237
1200 -126 255 -253 433 -459 637 -408 406 -896 628 -1493 679 -100 9 -183 15
-185 15 -2 -1 -70 -8 -153 -15z m-456 -1069 c62 -32 140 -99 191 -162 23 -29
44 -53 46 -53 3 0 18 7 34 15 90 46 319 70 533 55 130 -9 208 -26 276 -58 l35
-16 25 34 c81 109 208 203 294 217 l36 5 16 -53 c26 -81 31 -243 11 -311 -22
-78 -21 -84 28 -139 33 -37 49 -68 69 -131 40 -127 50 -199 51 -378 1 -189
-16 -272 -80 -390 -89 -162 -281 -294 -503 -342 -53 -12 -97 -22 -99 -23 -1
-1 8 -26 22 -56 41 -95 46 -143 46 -489 l0 -330 -355 0 -355 0 0 169 c0 94 -3
172 -7 174 -5 3 -39 0 -77 -5 -100 -14 -223 4 -306 44 -90 44 -176 132 -230
239 -58 114 -144 235 -194 271 -80 58 -71 84 31 81 113 -4 188 -56 278 -195
92 -141 245 -207 415 -178 38 6 73 17 78 23 5 7 14 43 21 82 7 38 23 92 37
119 14 27 23 50 22 50 -2 1 -48 13 -103 25 -248 58 -421 183 -515 373 -57 116
-74 225 -66 417 11 237 48 373 127 459 44 49 45 53 23 113 -9 27 -15 79 -15
134 -1 94 3 119 28 198 15 49 15 49 51 42 20 -4 56 -17 81 -30z"/>
</g>
</svg>
