<?xml version="1.0" standalone="no"?>
<!DOCTYPE svg PUBLIC "-//W3C//DTD SVG 20010904//EN"
 "http://www.w3.org/TR/2001/REC-SVG-20010904/DTD/svg10.dtd">
<svg version="1.0" xmlns="http://www.w3.org/2000/svg"
 width="512.000000pt" height="512.000000pt" viewBox="0 0 512.000000 512.000000"
 preserveAspectRatio="xMidYMid meet">

<g transform="translate(0.000000,512.000000) scale(0.100000,-0.100000)"
fill="#000000" stroke="none">
<path d="M2380 4954 c-537 -51 -997 -242 -1386 -578 -441 -380 -716 -881 -811
-1478 -24 -157 -24 -517 1 -676 74 -472 259 -879 561 -1230 382 -445 916 -731
1515 -814 123 -17 478 -16 600 1 698 96 1291 459 1679 1026 465 680 549 1542
224 2304 -181 425 -491 794 -888 1056 -329 217 -705 349 -1100 385 -102 9
-313 11 -395 4z m985 -978 c295 -88 509 -317 569 -609 24 -114 24 -1500 0
-1614 -34 -164 -112 -303 -236 -418 -94 -87 -176 -136 -298 -178 l-95 -32
-745 0 -745 0 -95 32 c-124 42 -207 92 -299 178 -124 117 -206 264 -237 423
-21 110 -20 1496 0 1606 30 156 94 274 216 397 123 124 266 201 421 228 30 5
371 8 769 7 654 -2 720 -4 775 -20z"/>
<path d="M1832 3705 c-132 -36 -264 -138 -324 -251 -58 -108 -58 -103 -58
-894 0 -791 0 -786 58 -894 38 -71 145 -175 214 -208 120 -58 113 -58 838 -58
725 0 723 0 840 58 116 57 232 208 260 338 7 33 10 296 8 794 l-3 745 -23 58
c-52 128 -177 251 -303 298 l-64 24 -695 2 c-579 2 -704 0 -748 -12z m1569
-250 c35 -18 69 -70 69 -103 0 -64 -57 -122 -120 -122 -124 0 -166 170 -56
224 40 20 70 20 107 1z m-623 -131 c348 -101 574 -402 574 -764 0 -246 -103
-464 -294 -620 -230 -187 -565 -227 -837 -100 -209 98 -358 275 -427 507 -35
118 -37 288 -5 408 118 440 559 694 989 569z"/>
<path d="M2475 3069 c-273 -45 -466 -309 -426 -581 42 -279 310 -480 584 -439
92 14 215 74 280 135 262 252 197 678 -128 837 -108 53 -199 67 -310 48z"/>
</g>
</svg>
