<?xml version="1.0" standalone="no"?>
<!DOCTYPE svg PUBLIC "-//W3C//DTD SVG 20010904//EN"
 "http://www.w3.org/TR/2001/REC-SVG-20010904/DTD/svg10.dtd">
<svg version="1.0" xmlns="http://www.w3.org/2000/svg"
 width="512.000000pt" height="512.000000pt" viewBox="0 0 512.000000 512.000000"
 preserveAspectRatio="xMidYMid meet">

<g transform="translate(0.000000,512.000000) scale(0.100000,-0.100000)"
fill="#000000" stroke="none">
<path d="M2405 4794 c-16 -2 -65 -9 -108 -15 -247 -33 -534 -149 -757 -307
-121 -85 -326 -289 -413 -412 -81 -115 -195 -340 -237 -470 -87 -268 -109
-549 -64 -830 90 -574 441 -1198 1040 -1851 215 -235 522 -526 596 -566 45
-24 151 -24 199 0 90 45 558 499 764 741 382 447 635 868 775 1286 172 513
153 994 -56 1430 -100 208 -198 343 -370 510 -257 250 -564 405 -919 466 -87
15 -388 27 -450 18z m330 -579 c274 -45 502 -161 695 -355 182 -183 291 -387
347 -650 24 -115 24 -351 0 -473 -118 -592 -633 -1017 -1232 -1017 -342 0
-642 125 -886 369 -246 245 -369 541 -369 886 0 141 18 257 60 388 143 448
546 788 1015 856 96 14 273 12 370 -4z"/>
<path d="M2512 3963 c2 -5 20 -41 40 -81 96 -194 61 -416 -90 -569 -220 -223
-579 -196 -763 58 l-44 60 -21 -48 c-61 -137 -85 -255 -85 -414 0 -273 97
-506 290 -700 126 -125 278 -213 446 -259 102 -28 313 -38 423 -20 386 62 706
359 804 746 32 126 32 349 0 478 -93 370 -394 660 -767 737 -89 19 -240 26
-233 12z"/>
</g>
</svg>
